<mxfile host="app.diagrams.net" modified="2023-09-29T07:16:32.900Z" agent="Mozilla/5.0 (X11; Linux x86_64) AppleWebKit/537.36 (KHTML, like Gecko) Chrome/117.0.0.0 Safari/537.36" etag="Esakr4EILwK6A61fVm_i" version="21.8.2" type="device">
  <diagram name="Page-1" id="ljPFCZtg0qGUFZqe4bcW">
    <mxGraphModel dx="1434" dy="779" grid="1" gridSize="10" guides="1" tooltips="1" connect="1" arrows="1" fold="1" page="1" pageScale="1" pageWidth="850" pageHeight="1100" math="0" shadow="0">
      <root>
        <mxCell id="0" />
        <mxCell id="1" parent="0" />
        <mxCell id="7LLMeNn5JyQAJvgbJ5tp-1" value="/Remote&lt;br&gt;&lt;br&gt;Triggers replay batch wise, given whole pipeline is ready" style="ellipse;whiteSpace=wrap;html=1;strokeWidth=5;" parent="1" vertex="1">
          <mxGeometry x="230" y="170" width="130" height="100" as="geometry" />
        </mxCell>
        <mxCell id="7LLMeNn5JyQAJvgbJ5tp-6" style="edgeStyle=orthogonalEdgeStyle;rounded=0;orthogonalLoop=1;jettySize=auto;html=1;exitX=1;exitY=0.5;exitDx=0;exitDy=0;strokeWidth=5;" parent="1" source="7LLMeNn5JyQAJvgbJ5tp-2" target="7LLMeNn5JyQAJvgbJ5tp-5" edge="1">
          <mxGeometry relative="1" as="geometry" />
        </mxCell>
        <mxCell id="7LLMeNn5JyQAJvgbJ5tp-2" value="/rosbag2_player" style="ellipse;whiteSpace=wrap;html=1;strokeWidth=5;" parent="1" vertex="1">
          <mxGeometry x="70" y="390" width="120" height="80" as="geometry" />
        </mxCell>
        <mxCell id="7LLMeNn5JyQAJvgbJ5tp-9" style="edgeStyle=orthogonalEdgeStyle;rounded=0;orthogonalLoop=1;jettySize=auto;html=1;exitX=1;exitY=0.5;exitDx=0;exitDy=0;strokeWidth=5;" parent="1" source="7LLMeNn5JyQAJvgbJ5tp-3" target="7LLMeNn5JyQAJvgbJ5tp-8" edge="1">
          <mxGeometry relative="1" as="geometry" />
        </mxCell>
        <mxCell id="7LLMeNn5JyQAJvgbJ5tp-3" value="/AlgorithmNode1&lt;br&gt;&lt;br&gt;Monitors its workload" style="ellipse;whiteSpace=wrap;html=1;strokeWidth=5;" parent="1" vertex="1">
          <mxGeometry x="370" y="385" width="140" height="90" as="geometry" />
        </mxCell>
        <mxCell id="7LLMeNn5JyQAJvgbJ5tp-4" value="/AlgorithmNode2&lt;br&gt;&lt;br&gt;Monitors its workload" style="ellipse;whiteSpace=wrap;html=1;strokeWidth=5;" parent="1" vertex="1">
          <mxGeometry x="670" y="385" width="130" height="90" as="geometry" />
        </mxCell>
        <mxCell id="7LLMeNn5JyQAJvgbJ5tp-7" style="edgeStyle=orthogonalEdgeStyle;rounded=0;orthogonalLoop=1;jettySize=auto;html=1;exitX=1;exitY=0.5;exitDx=0;exitDy=0;strokeWidth=5;" parent="1" source="7LLMeNn5JyQAJvgbJ5tp-5" target="7LLMeNn5JyQAJvgbJ5tp-3" edge="1">
          <mxGeometry relative="1" as="geometry" />
        </mxCell>
        <mxCell id="7LLMeNn5JyQAJvgbJ5tp-5" value="/topic1" style="rounded=0;whiteSpace=wrap;html=1;strokeWidth=5;" parent="1" vertex="1">
          <mxGeometry x="240" y="410" width="90" height="40" as="geometry" />
        </mxCell>
        <mxCell id="7LLMeNn5JyQAJvgbJ5tp-10" style="edgeStyle=orthogonalEdgeStyle;rounded=0;orthogonalLoop=1;jettySize=auto;html=1;exitX=1;exitY=0.5;exitDx=0;exitDy=0;strokeWidth=5;" parent="1" source="7LLMeNn5JyQAJvgbJ5tp-8" target="7LLMeNn5JyQAJvgbJ5tp-4" edge="1">
          <mxGeometry relative="1" as="geometry" />
        </mxCell>
        <mxCell id="7LLMeNn5JyQAJvgbJ5tp-8" value="/topic2" style="rounded=0;whiteSpace=wrap;html=1;strokeWidth=5;" parent="1" vertex="1">
          <mxGeometry x="550" y="410" width="80" height="40" as="geometry" />
        </mxCell>
        <mxCell id="7LLMeNn5JyQAJvgbJ5tp-11" value="" style="endArrow=classic;startArrow=classic;html=1;rounded=0;entryX=0;entryY=1;entryDx=0;entryDy=0;exitX=1;exitY=0;exitDx=0;exitDy=0;strokeWidth=5;" parent="1" source="7LLMeNn5JyQAJvgbJ5tp-2" target="7LLMeNn5JyQAJvgbJ5tp-1" edge="1">
          <mxGeometry width="50" height="50" relative="1" as="geometry">
            <mxPoint x="400" y="430" as="sourcePoint" />
            <mxPoint x="450" y="380" as="targetPoint" />
          </mxGeometry>
        </mxCell>
        <mxCell id="7LLMeNn5JyQAJvgbJ5tp-13" value="" style="endArrow=classic;startArrow=classic;html=1;rounded=0;exitX=0.5;exitY=0;exitDx=0;exitDy=0;strokeWidth=5;" parent="1" source="7LLMeNn5JyQAJvgbJ5tp-3" target="7LLMeNn5JyQAJvgbJ5tp-1" edge="1">
          <mxGeometry width="50" height="50" relative="1" as="geometry">
            <mxPoint x="182" y="412" as="sourcePoint" />
            <mxPoint x="268" y="268" as="targetPoint" />
          </mxGeometry>
        </mxCell>
        <mxCell id="7LLMeNn5JyQAJvgbJ5tp-14" value="" style="endArrow=classic;startArrow=classic;html=1;rounded=0;exitX=0.5;exitY=0;exitDx=0;exitDy=0;entryX=1;entryY=0.5;entryDx=0;entryDy=0;strokeWidth=5;" parent="1" source="7LLMeNn5JyQAJvgbJ5tp-4" target="7LLMeNn5JyQAJvgbJ5tp-1" edge="1">
          <mxGeometry width="50" height="50" relative="1" as="geometry">
            <mxPoint x="450" y="400" as="sourcePoint" />
            <mxPoint x="340" y="275" as="targetPoint" />
          </mxGeometry>
        </mxCell>
        <mxCell id="7LLMeNn5JyQAJvgbJ5tp-15" value="Ready" style="text;html=1;strokeColor=none;fillColor=none;align=center;verticalAlign=middle;whiteSpace=wrap;rounded=0;" parent="1" vertex="1">
          <mxGeometry x="380" y="310" width="60" height="30" as="geometry" />
        </mxCell>
        <mxCell id="7LLMeNn5JyQAJvgbJ5tp-16" value="Ready" style="text;html=1;strokeColor=none;fillColor=none;align=center;verticalAlign=middle;whiteSpace=wrap;rounded=0;" parent="1" vertex="1">
          <mxGeometry x="520" y="270" width="60" height="30" as="geometry" />
        </mxCell>
        <mxCell id="7LLMeNn5JyQAJvgbJ5tp-17" value="playNextBatch" style="text;html=1;strokeColor=none;fillColor=none;align=center;verticalAlign=middle;whiteSpace=wrap;rounded=0;" parent="1" vertex="1">
          <mxGeometry x="130" y="300" width="90" height="30" as="geometry" />
        </mxCell>
        <mxCell id="on2QjgH2T8NMFxKWSZst-7" value="Ready" style="text;html=1;strokeColor=none;fillColor=none;align=center;verticalAlign=middle;whiteSpace=wrap;rounded=0;" vertex="1" parent="1">
          <mxGeometry x="300" y="340" width="60" height="30" as="geometry" />
        </mxCell>
      </root>
    </mxGraphModel>
  </diagram>
</mxfile>
